<?xml version="1.0" standalone="no"?><!DOCTYPE svg PUBLIC "-//W3C//DTD SVG 1.1//EN" "http://www.w3.org/Graphics/SVG/1.1/DTD/svg11.dtd"><svg class="icon" width="200px" height="200.00px" viewBox="0 0 1024 1024" version="1.1" xmlns="http://www.w3.org/2000/svg"><path d="M733.867 998.4H364.8c-81.067 0-147.2-66.133-147.2-147.2 0-17.067 14.933-32 32-32s32 14.933 32 32c0 44.8 36.267 83.2 83.2 83.2H736c44.8 0 83.2-36.267 83.2-83.2V313.6c0-38.4-12.8-89.6-125.867-89.6-17.066 0-32-14.933-32-32s14.934-32 32-32C864 160 883.2 266.667 883.2 313.6v539.733C881.067 934.4 814.933 998.4 733.867 998.4z" fill="#ffbb12" /><path d="M576 878.933H206.933c-81.066 0-147.2-66.133-147.2-147.2V192c0-81.067 66.134-147.2 147.2-147.2H576c81.067 0 147.2 66.133 147.2 147.2v539.733c0 81.067-66.133 147.2-147.2 147.2zM123.733 192v539.733c0 44.8 36.267 83.2 83.2 83.2H576c44.8 0 83.2-36.266 83.2-83.2V192c0-44.8-36.267-83.2-83.2-83.2H206.933c-29.866 0-83.2 38.4-83.2 83.2z" fill="#543e3e" /><path d="M381.867 279.467H270.933c-17.066 0-32-14.934-32-32s14.934-32 32-32h110.934c17.066 0 32 14.933 32 32s-14.934 32-32 32z m87.466 185.6h-192c-17.066 0-32-14.934-32-32s14.934-32 32-32h192c17.067 0 32 14.933 32 32s-12.8 32-32 32z" fill="#ffbb12" /></svg>