<?xml version="1.0" standalone="no"?><!DOCTYPE svg PUBLIC "-//W3C//DTD SVG 1.1//EN" "http://www.w3.org/Graphics/SVG/1.1/DTD/svg11.dtd"><svg class="icon" width="200px" height="200.00px" viewBox="0 0 1024 1024" version="1.1" xmlns="http://www.w3.org/2000/svg"><path d="M985.401991 231.3353h-78.763721v-22.33259l-26.77066-10.510357c-5.353927-2.09982-132.713339-51.583739-244.122509-51.583739-52.161906 0-93.896342 10.750833-124.682448 32.040676-30.814758-21.289843-72.506216-32.040676-124.69575-32.040676-111.394844 0-238.754255 49.483919-244.122509 51.583739l-26.743031 10.510357v22.33259H38.598009c-17.458592 0-31.618052 14.160483-31.618051 31.617028V845.474357c0 17.457569 14.160483 31.618052 31.618051 31.618052h946.803982c17.457569 0 31.617028-14.161506 31.617028-31.618052V262.952328c0.001023-17.456546-14.15946-31.617028-31.617028-31.617028z m-120.920782 6.411001v462.293c-65.306248-22.361242-238.754255-73.042427-332.339513-18.402078V216.018483c26.389991-19.711908 63.531838-26.939505 103.603405-26.939505 104.702434 0 228.736107 48.667322 228.736108 48.667323z m-47.764768 491.105152h-277.980573c54.246376-51.456849 188.53765-26.714378 277.980573 0z m-430.349538-539.772475c40.071567 0 77.226718 7.242947 103.617731 26.939505v465.617716c-93.613911-54.612719-267.033265-3.95814-332.339513 18.402079V237.746301c-0.001023 0 124.018324-48.667322 228.721782-48.667323z m97.009233 539.772475H205.339281c89.41427-26.742007 223.776152-51.526434 278.036855 0z m470.393477 84.99155H70.216061V294.583683h45.285302V771.008514h791.13793V294.583683h47.131343v519.25932z" /></svg>