<?xml version="1.0" standalone="no"?><!DOCTYPE svg PUBLIC "-//W3C//DTD SVG 1.1//EN" "http://www.w3.org/Graphics/SVG/1.1/DTD/svg11.dtd"><svg class="icon" width="200px" height="200.00px" viewBox="0 0 1024 1024" version="1.1" xmlns="http://www.w3.org/2000/svg"><path d="M523.1 282.8c-11 0-20-9-20-20s9-20 20-20c38.6 0 70-31.4 70-70s-31.4-70-70-70-70 31.4-70 70c0 11-9 20-20 20s-20-9-20-20c0-60.6 49.3-110 110-110 60.6 0 110 49.3 110 110s-49.4 110-110 110z"  /><path d="M514 374.1c-11 0-20-9-20-20v-88.2c0-11 9-20 20-20s20 9 20 20v88.2c0 11-9 20-20 20zM709.5 910.4h-391c-22.1 0-40-17.9-40-40V522.6c0-22.1 17.9-40 40-40h391c22.1 0 40 17.9 40 40v347.8c0 22-18 40-40 40z m-391-40h391V522.6c0 0.1 0 0-0.1 0H318.5v347.8z"  /><path d="M118 662.5c-11 0-20-9-20-20 0-40.2 8-79.4 23.6-116.3 15.1-35.6 36.7-67.6 64.3-95.1s59.5-49.1 95.1-64.3c36.9-15.7 76-23.6 116.3-23.6h233.3c40.2 0 79.4 8 116.3 23.6 35.6 15.1 67.6 36.7 95.1 64.3 27.5 27.5 49.1 59.5 64.3 95.1 15.7 36.9 23.6 76 23.6 116.3 0 11-9 20-20 20s-20-9-20-20c0-143-116.3-259.3-259.3-259.3H397.3c-143 0-259.3 116.3-259.3 259.3 0 11.1-8.9 20-20 20z"  /><path d="M298.1 662.5H118.3c-11 0-20-9-20-20s9-20 20-20h179.8c11 0 20 9 20 20s-8.9 20-20 20zM909.2 664.7H729.4c-11 0-20-9-20-20s9-20 20-20h179.8c11 0 20 9 20 20s-9 20-20 20z"  /></svg>