<?xml version="1.0" standalone="no"?><!DOCTYPE svg PUBLIC "-//W3C//DTD SVG 1.1//EN" "http://www.w3.org/Graphics/SVG/1.1/DTD/svg11.dtd"><svg class="icon" width="200px" height="200.00px" viewBox="0 0 1024 1024" version="1.1" xmlns="http://www.w3.org/2000/svg"><path d="M742.4 1017.6h-416c-110.933 0-200.533-89.6-200.533-200.533v-588.8c0-110.934 89.6-200.534 200.533-200.534h416c110.933 0 200.533 89.6 200.533 200.534v588.8c0 110.933-89.6 200.533-200.533 200.533z m-416-923.733c-74.667 0-136.533 61.866-136.533 136.533v588.8c0 74.667 61.866 136.533 136.533 136.533h416c74.667 0 136.533-61.866 136.533-136.533V228.267c0-74.667-61.866-136.534-136.533-136.534h-416z" fill="#543e3e" /><path d="M548.267 298.667H379.733c-17.066 0-32-14.934-32-32s14.934-32 32-32h168.534c17.066 0 32 14.933 32 32s-14.934 32-32 32zM620.8 524.8H379.733c-17.066 0-32-14.933-32-32s14.934-32 32-32H620.8c17.067 0 32 14.933 32 32s-14.933 32-32 32z" fill="#ffbb12" /></svg>