<?xml version="1.0" standalone="no"?><!DOCTYPE svg PUBLIC "-//W3C//DTD SVG 1.1//EN" "http://www.w3.org/Graphics/SVG/1.1/DTD/svg11.dtd"><svg t="1570948342790" class="icon" viewBox="0 0 1024 1024" version="1.1" xmlns="http://www.w3.org/2000/svg" p-id="1448" xmlns:xlink="http://www.w3.org/1999/xlink" width="200" height="200"><defs><style type="text/css"></style></defs><path d="M827.733 546.133c-8.533 4.267-17.066 10.667-25.6 14.934-14.933 138.666-134.4 247.466-279.466 247.466C450.133 808.533 384 780.8 334.933 736c-25.6 6.4-51.2 10.667-76.8 12.8 64 74.667 157.867 121.6 264.534 121.6 189.866 0 345.6-153.6 345.6-339.2v-10.667c-4.267 4.267-10.667 6.4-14.934 10.667-10.666 6.4-19.2 10.667-25.6 14.933z" fill="#543E3E" p-id="1449"></path><path d="M1011.2 324.267c-27.733-74.667-157.867-70.4-268.8-51.2 21.333 17.066 38.4 36.266 55.467 57.6 104.533-12.8 149.333 4.266 153.6 17.066C955.733 358.4 936.533 396.8 857.6 454.4c-12.8 8.533-25.6 17.067-40.533 27.733-6.4 4.267-10.667 6.4-17.067 10.667-2.133 0-2.133 2.133-4.267 2.133C725.333 537.6 640 576 550.4 610.133c-104.533 38.4-192 61.867-264.533 74.667-25.6 4.267-49.067 6.4-68.267 8.533-85.333 8.534-136.533-2.133-140.8-17.066C72.533 665.6 93.867 622.933 179.2 563.2c0-8.533-2.133-19.2-2.133-27.733 0-17.067 2.133-34.134 4.266-51.2C89.6 539.733-12.8 622.933 14.933 697.6c17.067 44.8 72.534 64 151.467 64 27.733 0 59.733-2.133 91.733-6.4 23.467-4.267 51.2-8.533 76.8-12.8 76.8-17.067 160-40.533 238.934-70.4 83.2-32 162.133-66.133 230.4-104.533 8.533-4.267 17.066-10.667 25.6-14.934C838.4 548.267 844.8 544 853.333 537.6c4.267-4.267 10.667-6.4 14.934-10.667 81.066-59.733 168.533-134.4 142.933-202.666z" fill="#FFBB12" p-id="1450"></path><path d="M795.733 328.533C778.667 307.2 761.6 288 740.267 270.933 682.667 221.867 605.867 192 520.533 192 347.733 192 204.8 317.867 179.2 482.133c-2.133 17.067-4.267 34.134-4.267 51.2 0 8.534 0 19.2 2.134 27.734 4.266 46.933 17.066 91.733 38.4 130.133 21.333-2.133 44.8-4.267 68.266-8.533C256 640 238.933 588.8 238.933 533.333c0-151.466 125.867-275.2 281.6-275.2 140.8 0 256 100.267 277.334 232.534 6.4-4.267 12.8-6.4 17.066-10.667 14.934-8.533 27.734-19.2 40.534-27.733-10.667-44.8-32-87.467-59.734-123.734z" fill="#543E3E" p-id="1451"></path></svg>