<?xml version="1.0" standalone="no"?><!DOCTYPE svg PUBLIC "-//W3C//DTD SVG 1.1//EN" "http://www.w3.org/Graphics/SVG/1.1/DTD/svg11.dtd"><svg class="icon" width="200px" height="200.00px" viewBox="0 0 1024 1024" version="1.1" xmlns="http://www.w3.org/2000/svg"><path d="M268.8 411.733c-12.8 0-23.467-6.4-29.867-19.2-12.8-29.866-19.2-64-19.2-96 0-145.066 128-262.4 283.734-262.4S787.2 151.467 787.2 296.533c0 27.734-4.267 55.467-14.933 83.2-6.4 17.067-23.467 25.6-40.534 19.2-17.066-6.4-25.6-23.466-19.2-40.533 6.4-19.2 10.667-40.533 10.667-61.867 0-108.8-98.133-198.4-219.733-198.4-121.6 0-219.734 89.6-219.734 198.4 0 25.6 4.267 49.067 14.934 70.4 6.4 17.067 0 34.134-17.067 42.667-4.267 0-8.533 2.133-12.8 2.133z" fill="#543e3e" /><path d="M503.467 953.6C358.4 953.6 249.6 893.867 249.6 812.8c0-66.133 72.533-119.467 185.6-134.4 17.067-2.133 34.133 10.667 36.267 27.733C473.6 723.2 460.8 740.267 443.733 742.4c-83.2 12.8-132.266 46.933-132.266 72.533 0 32 72.533 76.8 189.866 76.8s189.867-44.8 189.867-76.8c0-23.466-38.4-53.333-113.067-68.266-17.066-4.267-27.733-21.334-25.6-38.4 4.267-17.067 21.334-27.734 38.4-25.6 100.267 19.2 164.267 70.4 164.267 132.266C757.333 893.867 648.533 953.6 503.467 953.6z" fill="#ffbb12" /><path d="M503.467 812.8c-23.467 0-46.934-10.667-59.734-27.733L441.6 780.8 241.067 394.667c-8.534-14.934-2.134-34.134 12.8-42.667 14.933-8.533 34.133-2.133 42.666 12.8l200.534 381.867H512L714.667 352c8.533-14.933 27.733-21.333 42.666-12.8s21.334 27.733 12.8 42.667L561.067 782.933c-10.667 19.2-32 29.867-57.6 29.867z" fill="#543e3e" /><path d="M505.6 430.933c-66.133 0-119.467-53.333-119.467-119.466S439.467 192 505.6 192s119.467 53.333 119.467 119.467S571.733 430.933 505.6 430.933z m0-172.8c-29.867 0-55.467 25.6-55.467 55.467s25.6 55.467 55.467 55.467c29.867 0 55.467-25.6 55.467-55.467S537.6 258.133 505.6 258.133z" fill="#ffbb12" /></svg>