<?xml version="1.0" standalone="no"?><!DOCTYPE svg PUBLIC "-//W3C//DTD SVG 1.1//EN" "http://www.w3.org/Graphics/SVG/1.1/DTD/svg11.dtd"><svg t="1570948498417" class="icon" viewBox="0 0 1024 1024" version="1.1" xmlns="http://www.w3.org/2000/svg" p-id="1884" xmlns:xlink="http://www.w3.org/1999/xlink" width="200" height="200"><defs><style type="text/css"></style></defs><path d="M635.733 966.4c-17.066 0-32-14.933-32-32V723.2c0-42.667-34.133-76.8-76.8-76.8s-76.8 34.133-76.8 76.8v211.2c0 17.067-14.933 32-32 32s-32-14.933-32-32V723.2c0-76.8 61.867-140.8 140.8-140.8s140.8 61.867 140.8 140.8v211.2c0 17.067-14.933 32-32 32z" fill="#FFBB12" p-id="1885"></path><path d="M750.933 985.6H300.8c-100.267 0-181.333-91.733-181.333-204.8V379.733c0-68.266 29.866-132.266 78.933-168.533l209.067-160C465.067 6.4 544 4.267 603.733 44.8L844.8 209.067C898.133 245.333 932.267 313.6 932.267 384v396.8C934.4 893.867 851.2 985.6 750.933 985.6zM509.867 81.067c-21.334 0-44.8 6.4-64 21.333L236.8 262.4c-34.133 25.6-55.467 70.4-55.467 119.467v401.066c0 76.8 53.334 140.8 117.334 140.8H748.8c64 0 117.333-64 117.333-140.8v-396.8c0-51.2-23.466-98.133-59.733-121.6l-238.933-166.4c-17.067-10.666-38.4-17.066-57.6-17.066z" fill="#543E3E" p-id="1886"></path></svg>