<?xml version="1.0" standalone="no"?><!DOCTYPE svg PUBLIC "-//W3C//DTD SVG 1.1//EN" "http://www.w3.org/Graphics/SVG/1.1/DTD/svg11.dtd"><svg t="1570094508808" class="icon" viewBox="0 0 1024 1024" version="1.1" xmlns="http://www.w3.org/2000/svg" p-id="8842" xmlns:xlink="http://www.w3.org/1999/xlink" width="200" height="200"><defs><style type="text/css"></style></defs><path d="M512 512m-512 0a512 512 0 1 0 1024 0 512 512 0 1 0-1024 0Z" fill="#FFA904" p-id="8843"></path><path d="M663.552 821.248c70.656 0 116.224-76.288 81.92-138.24-47.104-85.504-134.144-142.848-233.472-142.848s-186.368 57.344-233.472 142.848c-34.304 61.952 10.752 138.24 81.92 138.24h303.104z" fill="#FFFFFF" p-id="8844"></path><path d="M512 343.552m-161.792 0a161.792 161.792 0 1 0 323.584 0 161.792 161.792 0 1 0-323.584 0Z" fill="#FFFFFF" p-id="8845"></path></svg>