<?xml version="1.0" standalone="no"?><!DOCTYPE svg PUBLIC "-//W3C//DTD SVG 1.1//EN" "http://www.w3.org/Graphics/SVG/1.1/DTD/svg11.dtd"><svg t="1570948350295" class="icon" viewBox="0 0 1024 1024" version="1.1" xmlns="http://www.w3.org/2000/svg" p-id="1595" xmlns:xlink="http://www.w3.org/1999/xlink" width="200" height="200"><defs><style type="text/css"></style></defs><path d="M849.067 642.133l-38.4-2.133c-17.067 0-32-14.933-29.867-34.133 0-17.067 14.933-32 34.133-29.867l36.267 2.133c40.533 0 76.8-34.133 76.8-76.8V298.667c0-42.667-34.133-76.8-76.8-76.8H537.6c-42.667 0-76.8 34.133-76.8 76.8 0 17.066-14.933 32-32 32s-32-14.934-32-32c0-78.934 64-140.8 140.8-140.8h311.467c78.933 0 140.8 64 140.8 140.8v202.666c0 76.8-61.867 140.8-140.8 140.8z" fill="#FFBB12" p-id="1596"></path><path d="M134.4 878.933c-14.933 0-29.867-4.266-42.667-12.8C68.267 851.2 55.467 825.6 55.467 797.867V435.2c0-91.733 74.666-166.4 166.4-166.4h460.8c91.733 0 166.4 74.667 166.4 166.4V608c0 91.733-74.667 166.4-166.4 166.4h-224c-51.2 0-100.267 10.667-147.2 32l-142.934 64c-10.666 4.267-21.333 8.533-34.133 8.533z m85.333-544c-55.466 0-102.4 44.8-102.4 102.4v360.534c0 8.533 4.267 12.8 8.534 14.933 2.133 2.133 8.533 4.267 14.933 2.133l142.933-64c55.467-25.6 113.067-38.4 172.8-38.4H678.4c55.467 0 102.4-44.8 102.4-102.4v-172.8c0-55.466-44.8-102.4-102.4-102.4H219.733z" fill="#543E3E" p-id="1597"></path><path d="M241.067 531.2a36.267 36.267 0 1 0 72.533 0 36.267 36.267 0 1 0-72.533 0zM403.2 531.2a36.267 36.267 0 1 0 72.533 0 36.267 36.267 0 1 0-72.533 0zM584.533 531.2a36.267 36.267 0 1 0 72.534 0 36.267 36.267 0 1 0-72.534 0z" fill="#FFBB12" p-id="1598"></path></svg>