<?xml version="1.0" standalone="no"?><!DOCTYPE svg PUBLIC "-//W3C//DTD SVG 1.1//EN" "http://www.w3.org/Graphics/SVG/1.1/DTD/svg11.dtd"><svg class="icon" width="200px" height="200.00px" viewBox="0 0 1024 1024" version="1.1" xmlns="http://www.w3.org/2000/svg"><path d="M689.907 604.057H540.962v-4.138c2.068 0 2.068-2.068 4.137-2.068 86.885-82.748 86.885-82.748 88.954-93.091 4.137-16.55-6.207-33.1-22.756-37.237-12.412-4.137-24.824 2.069-33.099 12.412-6.206 6.206-37.236 37.237-68.267 66.198-26.893-31.03-53.786-59.992-57.923-68.266-6.206-10.344-18.618-16.55-31.03-14.481-16.55 2.069-28.962 18.618-24.824 35.168 2.068 10.343 2.068 12.412 80.678 101.365l2.069 2.069v2.069H344.436c-16.55 0-31.03 14.48-31.03 31.03s14.48 31.03 31.03 31.03h134.465v62.06h-78.61c-16.55 0-31.03 14.482-31.03 31.031s14.48 31.03 31.03 31.03h78.61v91.023c0 16.55 14.48 31.03 31.03 31.03s31.03-14.48 31.03-31.03v-91.023h84.817c16.55 0 31.03-14.48 31.03-31.03s-14.48-31.03-31.03-31.03h-84.816v-62.06h148.945c16.55 0 31.03-14.482 31.03-31.031s-14.48-31.03-31.03-31.03z" fill="#ffbb12" /><path d="M629.915 312.372c39.305-16.55 70.336-39.305 93.091-70.336 49.649-64.129 43.442-136.533 41.374-151.014C762.31 4.137 543.03 0 499.588 0 456.145 0 243.07 4.137 234.796 84.816c0 4.138-10.343 80.679 45.511 153.083 24.824 31.03 59.992 55.855 101.366 74.473C238.933 376.5 85.85 531.652 85.85 693.01c0 200.663 165.494 330.99 422.012 330.99 264.792 0 428.218-124.121 428.218-322.715 2.068-161.358-161.358-322.715-306.166-388.913z m-299.96-111.71c-35.167-45.51-35.167-93.09-35.167-105.502 16.55-12.413 86.885-33.1 204.8-33.1 115.846 0 188.25 20.687 202.731 33.1v4.137s8.275 57.923-28.961 105.503c-33.1 43.442-93.091 68.267-177.907 74.473-76.542-10.344-132.396-37.237-165.495-78.61zM509.932 961.94c-223.418 0-359.951-103.434-359.951-268.929 0-173.77 231.693-349.608 359.951-349.608 128.259 0 366.158 190.32 366.158 357.883 0 163.426-136.533 260.654-366.158 260.654z" fill="#543e3e" /></svg>