<?xml version="1.0" standalone="no"?><!DOCTYPE svg PUBLIC "-//W3C//DTD SVG 1.1//EN" "http://www.w3.org/Graphics/SVG/1.1/DTD/svg11.dtd"><svg t="1570948650068" class="icon" viewBox="0 0 1024 1024" version="1.1" xmlns="http://www.w3.org/2000/svg" p-id="11906" xmlns:xlink="http://www.w3.org/1999/xlink" width="200" height="200"><defs><style type="text/css"></style></defs><path d="M517.1 298.3c-68.4 0-124 55.6-124 124s55.6 124 124 124 124-55.6 124-124-55.6-124-124-124z m0 196.3c-39.9 0-72.4-32.4-72.4-72.4 0-39.9 32.4-72.4 72.4-72.4 39.9 0 72.4 32.4 72.4 72.4-0.1 40-32.5 72.4-72.4 72.4z" fill="#FD9F00" p-id="11907"></path><path d="M415.8 770.8c-14.2 0-25.9 11.6-25.9 25.9V900c0 14.2 11.6 25.9 25.9 25.9 14.2 0 25.9-11.6 25.9-25.9V796.6c0-14.3-11.7-25.8-25.9-25.8zM622.5 770.8c-14.2 0-25.9 11.6-25.9 25.9V900c0 14.2 11.6 25.9 25.9 25.9 14.3 0 25.9-11.6 25.9-25.9V796.6c-0.1-14.3-11.6-25.8-25.9-25.8z" fill="#615332" p-id="11908"></path><path d="M731.1 628.5c8.8-39.9 14.3-79.5 16.5-118.1 14.3-249.3-205-401.4-214.3-407.8-9-6.1-20.7-6-29.6 0.4-8.9 6.4-217.5 158-214 406.3 0.6 38.9 6 76.5 13.7 111.6-0.3 0.3-0.6 0.5-0.9 0.7-63.5 58.8-100 142.1-100 228.6 0 14.2 11.6 25.9 25.9 25.9 14.3 0 25.9-11.6 25.9-25.9 0-62.9 23.2-123.9 64.3-171 5.4 17.8 10.9 34.6 16.3 50 3.6 10.4 13.4 17.4 24.4 17.4h134.1v88.9c0 14.2 11.6 25.9 25.9 25.9 14.3 0 25.9-11.6 25.9-25.9v-88.9h133.3c11 0 20.8-6.9 24.4-17.4 4.6-13.3 8.8-26.6 12.8-39.9 35 45.2 54.3 100.2 54.3 158.4 0 14.2 11.6 25.9 25.9 25.9 14.3 0 25.9-11.6 25.9-25.9-0.5-82.9-32.4-160.5-90.7-219.2z m-71.4 66.3H545v-27.4c0-14.2-11.6-25.9-25.9-25.9-14.3 0-25.9 11.6-25.9 25.9v27.4H377.6c-17.5-52.3-35.3-117.8-36.2-186.2C338.7 324 473.6 194.9 519 156.7c46.9 37.7 187.4 166.5 177 350.7-3.3 60.7-15.6 123.6-36.3 187.4z" fill="#615332" p-id="11909"></path></svg>