<?xml version="1.0" standalone="no"?><!DOCTYPE svg PUBLIC "-//W3C//DTD SVG 1.1//EN" "http://www.w3.org/Graphics/SVG/1.1/DTD/svg11.dtd"><svg t="1570094434026" class="icon" viewBox="0 0 1024 1024" version="1.1" xmlns="http://www.w3.org/2000/svg" p-id="6164" xmlns:xlink="http://www.w3.org/1999/xlink" width="200" height="200"><defs><style type="text/css"></style></defs><path d="M512 11c-276.7 0-501 224.3-501 501s224.3 501 501 501 501-224.3 501-501S788.7 11 512 11z" fill="#158ee1" p-id="6165"></path><path d="M737.8 598.7c-10.5-62.9-54.4-104.1-54.4-104.1 6.3-57.1-16.7-67.2-16.7-67.2-4.9-176.8-151.6-173.7-154.7-173.6-3.1-0.1-149.8-3.2-154.7 173.5 0 0-23 10.1-16.7 67.2 0 0-43.9 41.2-54.4 104.1 0 0-5.6 106.3 50.2 13 0 0 12.6 35.4 35.5 67.2 0 0-41.1 14.5-37.6 52.1 0 0-1.4 41.9 87.8 39.1 0 0 62.7-5.1 81.6-32.5h16.6c18.8 27.5 81.6 32.5 81.6 32.5 89.2 2.9 87.8-39.1 87.8-39.1 3.5-37.6-37.6-52.1-37.6-52.1 23-31.8 35.5-67.2 35.5-67.2 55.7 93.4 50.2-12.9 50.2-12.9z" fill="#ffffff" p-id="6166"></path></svg>