<?xml version="1.0" standalone="no"?><!DOCTYPE svg PUBLIC "-//W3C//DTD SVG 1.1//EN" "http://www.w3.org/Graphics/SVG/1.1/DTD/svg11.dtd"><svg class="icon" width="200px" height="200.00px" viewBox="0 0 1024 1024" version="1.1" xmlns="http://www.w3.org/2000/svg"><path d="M507.733 1000.533c-125.866 0-256-64-320-162.133C134.4 757.333 128 667.733 172.8 582.4c53.333-102.4 46.933-138.667 38.4-189.867-2.133-8.533-2.133-17.066-4.267-27.733-10.666-76.8 12.8-106.667 34.134-117.333 25.6-14.934 57.6-8.534 89.6 17.066 42.666 34.134 70.4 53.334 81.066 57.6 2.134-2.133 6.4-6.4 10.667-14.933 10.667-17.067 36.267-72.533 25.6-213.333-2.133-40.534 17.067-57.6 27.733-64 12.8-6.4 38.4-14.934 74.667 10.666C684.8 132.267 686.933 266.667 691.2 364.8v23.467c0 21.333 8.533 40.533 12.8 44.8 0 0 12.8-4.267 34.133-32 17.067-23.467 40.534-51.2 72.534-44.8 32 6.4 42.666 38.4 49.066 61.866 0 2.134 2.134 6.4 2.134 8.534 44.8 130.133 25.6 290.133-51.2 405.333-64 98.133-162.134 157.867-275.2 168.533h-27.734z m-236.8-695.466c-2.133 4.266-6.4 21.333-2.133 53.333 2.133 8.533 2.133 17.067 4.267 25.6 10.666 57.6 19.2 108.8-44.8 230.4-42.667 81.067-17.067 147.2 10.666 189.867 59.734 87.466 179.2 140.8 294.4 132.266 119.467-10.666 189.867-81.066 226.134-140.8 66.133-100.266 83.2-238.933 42.666-349.866 0-2.134-2.133-6.4-4.266-10.667 0-2.133-2.134-4.267-2.134-8.533-2.133 2.133-6.4 6.4-8.533 12.8-38.4 46.933-74.667 64-106.667 53.333-38.4-12.8-55.466-64-55.466-102.4v-23.467C622.933 273.067 618.667 166.4 512 93.867c-2.133 0-2.133-2.134-4.267-2.134C518.4 236.8 492.8 307.2 471.467 341.333c-12.8 19.2-38.4 59.734-85.334 40.534-25.6-10.667-68.266-42.667-100.266-68.267-6.4-6.4-10.667-8.533-14.934-8.533z" fill="#543e3e" /><path d="M450.133 576c-14.933-10.667-27.733-6.4-23.466 23.467 4.266 23.466 10.666 34.133-12.8 76.8-32 64 38.4 125.866 108.8 119.466 83.2-8.533 119.466-102.4 96-172.8-2.134-8.533-6.4-27.733-23.467-4.266-25.6 29.866-34.133 2.133-34.133-10.667-2.134-32 0-74.667-40.534-104.533-10.666-6.4-17.066-4.267-17.066 8.533 2.133 42.667-4.267 64-10.667 74.667s-10.667 10.666-14.933 8.533c-6.4-2.133-23.467-14.933-27.734-19.2z" fill="#ffbb12" /></svg>