<?xml version="1.0" standalone="no"?><!DOCTYPE svg PUBLIC "-//W3C//DTD SVG 1.1//EN" "http://www.w3.org/Graphics/SVG/1.1/DTD/svg11.dtd"><svg class="icon" width="200px" height="200.00px" viewBox="0 0 1024 1024" version="1.1" xmlns="http://www.w3.org/2000/svg"><path d="M992.6 89.4h-312c-17.2 0-31.2 14-31.2 31.2s14 31.2 31.2 31.2H914L502.2 563.6c-12.8 12.8-12.8 33.6 0 46.4 12.8 12.8 33.6 12.8 46.4 0L961.4 197.2v204.2c0 17.2 14 31.2 31.2 31.2s31.2-14 31.2-31.2V120.6c0-17.2-14-31.2-31.2-31.2m-22.2 561.8c-17.2 0-31.2 14-31.2 31.2v127.4c0 34.4-28 62.4-62.4 62.4H125c-34.4 0-62.4-27.8-62.4-62.4V285.2c0-34.4 28-62.4 62.4-62.4h316.4c17.2 0 31.2-14 31.2-31.2s-14-31.2-31.2-31.2H93.8C42.2 160.4 0.2 202.4 0.2 254v587c0 51.6 42 93.6 93.6 93.6h814c51.6 0 93.6-42 93.6-93.6v-158.6c0.2-17.2-13.8-31.2-31-31.2m0 0"  /></svg>