<?xml version="1.0" standalone="no"?><!DOCTYPE svg PUBLIC "-//W3C//DTD SVG 1.1//EN" "http://www.w3.org/Graphics/SVG/1.1/DTD/svg11.dtd"><svg class="icon" width="200px" height="200.00px" viewBox="0 0 1024 1024" version="1.1" xmlns="http://www.w3.org/2000/svg"><path d="M273.067 945.067c-14.934 0-29.867-4.267-40.534-12.8-21.333-14.934-32-42.667-27.733-68.267l40.533-236.8c0-2.133 0-4.267-2.133-6.4L70.4 452.267c-19.2-19.2-25.6-46.934-17.067-72.534 8.534-25.6 29.867-44.8 57.6-46.933l236.8-34.133c2.134 0 4.267-2.134 4.267-4.267l23.467-44.8c8.533-14.933 27.733-21.333 42.666-14.933 14.934 8.533 21.334 27.733 14.934 42.666l-23.467 44.8c-10.667 21.334-29.867 34.134-53.333 38.4l-236.8 36.267c-2.134 0-4.267 2.133-4.267 4.267s0 4.266 2.133 6.4L290.133 576c17.067 17.067 23.467 38.4 19.2 61.867l-42.666 236.8c0 2.133 0 4.266 2.133 6.4 2.133 2.133 4.267 2.133 6.4 0L488.533 768c21.334-10.667 44.8-10.667 66.134 0L768 881.067c2.133 2.133 4.267 2.133 6.4 0 2.133-2.134 2.133-4.267 2.133-6.4L736 637.867c-4.267-23.467 4.267-46.934 21.333-61.867l46.934-46.933c12.8-12.8 32-12.8 44.8 0 12.8 12.8 12.8 32 0 44.8L802.133 620.8C800 622.933 800 625.067 800 627.2L840.533 864c4.267 25.6-6.4 53.333-27.733 68.267-21.333 14.933-51.2 17.066-74.667 6.4L524.8 827.733h-6.4L305.067 940.8c-8.534 2.133-21.334 4.267-32 4.267z" fill="#543e3e" /><path d="M896 516.267c-8.533 0-17.067-4.267-23.467-10.667-12.8-12.8-12.8-32 0-44.8L928 407.467s2.133-2.134 2.133-6.4c0-2.134-2.133-4.267-8.533-6.4l-238.933-34.134c-21.334-2.133-40.534-17.066-51.2-38.4L526.933 106.667c-2.133-4.267-8.533-4.267-10.666 0l-40.534 83.2C467.2 204.8 448 211.2 433.067 204.8c-14.934-8.533-21.334-27.733-14.934-42.667l40.534-83.2c12.8-23.466 36.266-38.4 64-38.4s51.2 14.934 64 38.4L693.333 294.4c0 2.133 2.134 2.133 2.134 4.267l236.8 34.133c27.733 4.267 51.2 23.467 59.733 49.067 8.533 25.6 2.133 53.333-17.067 70.4L919.467 505.6c-6.4 6.4-14.934 10.667-23.467 10.667z" fill="#ffbb12" /></svg>