<?xml version="1.0" standalone="no"?><!DOCTYPE svg PUBLIC "-//W3C//DTD SVG 1.1//EN" "http://www.w3.org/Graphics/SVG/1.1/DTD/svg11.dtd"><svg class="icon" width="200px" height="200.00px" viewBox="0 0 1024 1024" version="1.1" xmlns="http://www.w3.org/2000/svg"><path d="M526.933 966.4c-251.733 0-454.4-204.8-454.4-454.4 0-249.6 204.8-454.4 454.4-454.4s454.4 204.8 454.4 454.4c0 249.6-204.8 454.4-454.4 454.4z m0-844.8c-215.466 0-390.4 174.933-390.4 390.4 0 215.467 174.934 390.4 390.4 390.4 213.334 0 390.4-174.933 390.4-390.4 0-215.467-177.066-390.4-390.4-390.4z" fill="#543e3e" /><path d="M686.933 544H563.2c-38.4 0-70.4-32-70.4-70.4V326.4c0-17.067 14.933-32 32-32s32 14.933 32 32v147.2c0 4.267 2.133 6.4 6.4 6.4h123.733c17.067 0 32 14.933 32 32s-12.8 32-32 32z" fill="#ffbb12" /></svg>