<?xml version="1.0" standalone="no"?><!DOCTYPE svg PUBLIC "-//W3C//DTD SVG 1.1//EN" "http://www.w3.org/Graphics/SVG/1.1/DTD/svg11.dtd"><svg class="icon" width="200px" height="200.00px" viewBox="0 0 1024 1024" version="1.1" xmlns="http://www.w3.org/2000/svg"><path d="M711.457728 277.908474c-0.462534-1.418302-1.022283-2.805906-1.682315-4.143367-13.20679-26.825972-24.619724-49.992601-57.027831-49.992601l-276.5485 0c-32.372292 0-43.363623 22.286586-57.276495 50.505277-0.467651 0.945535-0.889253 1.921769-1.260713 2.913353l-42.452881 113.994264c-3.568269 9.587356-2.216481 20.313651 3.619434 28.717042 5.835915 8.403391 15.418154 13.415544 25.65224 13.415544l414.497339 0c9.999748 0 19.393699-4.789073 25.270547-12.876262 5.876847-8.088212 7.523347-18.504446 4.432962-28.010961L711.457728 277.908474zM349.438601 370.852306l26.200732-70.357418c3.360538-6.766101 5.734608-11.270694 7.416923-14.254655l262.857686 0.010233c1.555425 2.765997 3.751441 6.913457 6.837732 13.125949l23.232121 71.475891L349.438601 370.852306z"  /><path d="M431.483198 516.161786c0-17.248849-13.985526-31.233352-31.233352-31.233352-17.248849 0-31.233352 13.984503-31.233352 31.233352l0 30.470989c0 17.248849 13.984503 31.233352 31.233352 31.233352 17.248849 0 31.233352-13.984503 31.233352-31.233352L431.483198 516.161786z"  /><path d="M623.200638 484.928435c-17.248849 0-31.233352 13.984503-31.233352 31.233352l0 30.470989c0 17.248849 13.985526 31.233352 31.233352 31.233352s31.233352-13.984503 31.233352-31.233352l0-30.470989C654.43399 498.912937 640.449487 484.928435 623.200638 484.928435z"  /><path d="M593.624019 605.16589c-14.544251-9.302877-33.846876-5.068436-43.149752 9.455349-0.121773 0.198521-13.379729 19.449981-33.968649 19.449981-20.008706 0-32.443923-18.127869-33.276894-19.373233-9.17087-14.422478-28.274974-18.804275-42.829458-9.760295-14.655791 9.104355-19.155269 28.361955-10.04989 43.012629 11.209296 18.047028 41.974997 48.588625 86.157265 48.588625 43.958164 0 75.100442-30.3134 86.573751-48.223305C612.383268 633.785717 608.147804 614.468766 593.624019 605.16589z"  /><path d="M880.201943 406.894174l-67.240427-176.736237c-0.909719-2.684132-1.997494-5.311982-3.242857-7.858992-19.74981-40.328497-49.595558-101.265358-130.002866-101.265358L343.734692 121.033587c-80.391958 0-110.242823 60.926628-130.002866 101.260242-1.245364 2.552126-2.333138 5.179976-3.242857 7.864108l-67.240427 176.741353c-39.992853 25.133424-79.202876 69.203128-79.202876 124.680651L64.045665 787.641851c0 63.946404 52.020794 115.967198 115.967198 115.967198 53.17406 0 98.108458-35.971259 111.732757-84.860736l439.416891-2.033309c12.93766 49.92097 58.370409 86.894046 112.276133 86.894046 63.946404 0 115.972315-52.020794 115.972315-115.967198L959.410959 531.579941C959.409936 476.102419 920.199912 432.032714 880.201943 406.894174zM896.943232 787.641851c0 29.499871-23.9996 53.499471-53.504588 53.499471-29.499871 0-53.499471-23.9996-53.499471-53.499471l0-2.288113c0-8.306176-3.309372-16.272615-9.201569-22.13923-5.851265-5.825682-13.776771-9.094122-22.032806-9.094122-0.046049 0-0.096191 0-0.14224 0 0 0-489.704205 0-493.811756 0-17.248849 0-31.233352 13.985526-31.233352 31.233352l0 1.718131c-0.005117 0.234337-0.005117 0.472767-0.005117 0.711198 0 0.101307 0 0.208754 0.005117 0.304945-0.243547 29.297256-24.152073 53.052287-53.504588 53.052287-29.499871 0-53.499471-23.9996-53.499471-53.499471L126.513392 531.579941c0-30.878265 28.646434-60.393485 57.038064-75.948763 6.517437-3.568269 11.544941-9.343809 14.183024-16.282848l71.368444-187.585329c0.183172-0.483001 0.579191-1.514493 0.73678-2.00261 20.126386-41.080627 34.461883-66.2601 73.894987-66.2601L679.714769 183.500291c39.443337 0 53.779857 25.184589 74.113975 66.803475 0.162706 0.488117 0.335644 0.976234 0.518816 1.459235l71.368444 187.585329c2.638083 6.944156 7.670703 12.71458 14.183024 16.282848 28.39163 15.556301 57.043181 45.071522 57.043181 75.948763L896.942209 787.641851z"  /></svg>