<?xml version="1.0" standalone="no"?><!DOCTYPE svg PUBLIC "-//W3C//DTD SVG 1.1//EN" "http://www.w3.org/Graphics/SVG/1.1/DTD/svg11.dtd"><svg t="1570948366847" class="icon" viewBox="0 0 1024 1024" version="1.1" xmlns="http://www.w3.org/2000/svg" p-id="1740" xmlns:xlink="http://www.w3.org/1999/xlink" width="200" height="200"><defs><style type="text/css"></style></defs><path d="M514.133 433.067c-102.4 0-187.733-83.2-187.733-187.734 0-102.4 83.2-187.733 187.733-187.733s187.734 83.2 187.734 187.733c0 102.4-85.334 187.734-187.734 187.734z m0-311.467c-68.266 0-123.733 55.467-123.733 123.733 0 68.267 55.467 123.734 123.733 123.734S637.867 313.6 637.867 245.333c0-68.266-55.467-123.733-123.734-123.733z" fill="#FFBB12" p-id="1741"></path><path d="M689.067 994.133H339.2c-142.933 0-260.267-117.333-260.267-260.266S196.267 473.6 339.2 473.6h352c142.933 0 260.267 117.333 260.267 260.267S832 994.133 689.067 994.133zM339.2 539.733c-106.667 0-196.267 87.467-196.267 196.267S230.4 932.267 339.2 932.267h352c106.667 0 196.267-87.467 196.267-196.267S800 539.733 691.2 539.733h-352z" fill="#543E3E" p-id="1742"></path></svg>