<?xml version="1.0" standalone="no"?><!DOCTYPE svg PUBLIC "-//W3C//DTD SVG 1.1//EN" "http://www.w3.org/Graphics/SVG/1.1/DTD/svg11.dtd"><svg t="1570094315183" class="icon" viewBox="0 0 1024 1024" version="1.1" xmlns="http://www.w3.org/2000/svg" p-id="3385" xmlns:xlink="http://www.w3.org/1999/xlink" width="200" height="200"><defs><style type="text/css"></style></defs><path d="M324.021 388.85c0 18.001 14.596 32.597 32.597 32.597s32.597-14.596 32.597-32.597-14.596-32.597-32.597-32.597-32.597 14.596-32.597 32.597z m145.834-0.851c0 11.676 6.203 22.38 16.299 28.218 10.095 5.838 22.501 5.838 32.596 0s16.299-16.542 16.299-28.218-6.203-22.38-16.299-28.219c-10.095-5.838-22.501-5.838-32.596 0S469.855 376.322 469.855 388z m81.492 145.834c0 12.527 10.095 22.623 22.623 22.623s22.623-10.096 22.623-22.623-10.095-22.624-22.623-22.624c-12.406 0-22.623 10.096-22.623 22.624z m0 0M666.409 535.657c0 8.028 4.257 15.569 11.311 19.582 7.055 4.014 15.69 4.014 22.624 0 7.054-4.013 11.311-11.554 11.311-19.582 0-8.15-4.257-15.569-11.311-19.582-7.055-4.014-15.69-4.014-22.624 0-6.932 4.013-11.311 11.433-11.311 19.582z m0 0" fill="#51C332" p-id="3386"></path><path d="M511.574 13.866C236.204 13.866 13.38 236.69 13.38 512.06s222.826 498.195 498.195 498.195c275.37 0 498.195-222.826 498.195-498.195 0-275.37-222.825-498.195-498.195-498.195z m-85.14 613.256c-26.272 0-47.071-5.473-73.343-10.825l-73.343 36.246 20.799-62.518c-52.544-36.245-83.316-83.316-83.316-141.333 0-99.615 94.263-177.58 209.203-177.58 102.412 0 192.904 62.518 211.027 146.686-6.325-0.852-13.623-0.852-19.947-0.852-99.615 0-177.58 74.316-177.58 165.782 0 15.447 2.676 29.92 6.325 43.543-7.176-0.122-13.5 0.851-19.825 0.851z m306.141 73.343l15.447 52.544-57.166-31.745c-20.798 5.473-41.719 10.825-62.517 10.825-99.615 0-177.58-67.991-177.58-151.307s77.843-151.308 177.58-151.308c94.263 0 177.579 67.991 177.579 151.308 0 46.34-30.772 87.938-73.343 119.683z m0 0" fill="#51C332" p-id="3387"></path></svg>