<?xml version="1.0" standalone="no"?><!DOCTYPE svg PUBLIC "-//W3C//DTD SVG 1.1//EN" "http://www.w3.org/Graphics/SVG/1.1/DTD/svg11.dtd"><svg t="1570948579572" class="icon" viewBox="0 0 1024 1024" version="1.1" xmlns="http://www.w3.org/2000/svg" p-id="5287" xmlns:xlink="http://www.w3.org/1999/xlink" width="200" height="200"><defs><style type="text/css"></style></defs><path d="M891.733 339.2c-6.4 0-14.933-2.133-21.333-8.533L753.067 230.4c-12.8-10.667-14.934-32-4.267-44.8s32-14.933 44.8-4.267L910.933 281.6c12.8 10.667 14.934 32 4.267 44.8-4.267 8.533-14.933 12.8-23.467 12.8z" fill="#FFBB12" p-id="5288"></path><path d="M486.4 695.467c-8.533 0-17.067-2.134-25.6-8.534-12.8-10.666-17.067-27.733-10.667-42.666l51.2-174.934c8.534-21.333 19.2-40.533 32-55.466l268.8-320c10.667-12.8 25.6-21.334 42.667-21.334 17.067-2.133 32 4.267 44.8 14.934l91.733 78.933c25.6 21.333 29.867 61.867 6.4 87.467L721.067 569.6c-12.8 17.067-29.867 29.867-49.067 40.533h-2.133l-166.4 78.934c-4.267 4.266-10.667 6.4-17.067 6.4zM512 659.2z m-34.133-27.733s-2.134 0-2.134 2.133l2.134-2.133zM851.2 136.533L582.4 452.267c-8.533 10.666-14.933 21.333-19.2 34.133L526.933 608l115.2-55.467c10.667-6.4 21.334-14.933 29.867-25.6l268.8-313.6-89.6-76.8zM657.067 582.4z" fill="#FFBB12" p-id="5289"></path><path d="M424.533 987.733h-134.4c-128 0-230.4-104.533-230.4-230.4V375.467c0-128 104.534-230.4 230.4-230.4h192c17.067 0 32 14.933 32 32s-14.933 32-32 32h-192c-91.733 0-166.4 74.666-166.4 166.4v381.866c0 91.734 74.667 166.4 166.4 166.4h134.4c17.067 0 32 14.934 32 32s-14.933 32-32 32z" fill="#543E3E" p-id="5290"></path><path d="M669.867 987.733H428.8c-17.067 0-32-14.933-32-32s14.933-32 32-32h241.067c91.733 0 166.4-74.666 166.4-166.4V646.4c0-17.067 14.933-32 32-32s32 14.933 32 32v110.933c2.133 128-102.4 230.4-230.4 230.4z" fill="#543E3E" p-id="5291"></path></svg>