<?xml version="1.0" standalone="no"?><!DOCTYPE svg PUBLIC "-//W3C//DTD SVG 1.1//EN" "http://www.w3.org/Graphics/SVG/1.1/DTD/svg11.dtd"><svg t="1570983957267" class="icon" viewBox="0 0 1024 1024" version="1.1" xmlns="http://www.w3.org/2000/svg" p-id="4378" xmlns:xlink="http://www.w3.org/1999/xlink" width="200" height="200"><defs><style type="text/css"></style></defs><path d="M872.9 149L168.1 512l154.6 114.9c26.7 19.9 40.5 52.7 36.1 85.7l-15.6 115.5 129.7-53.7c26.3-10.9 56.2-8.9 80.8 5.3l181.2 104.6 138-735.3z m71.5-50L787 938c-1.8 9.7-8.3 18-17.3 22.1-9 4.1-19.4 3.6-28-1.3L523.2 832.6c-8.2-4.8-18.1-5.4-26.9-1.8l-178.7 74c-10.1 4.2-21.7 2.7-30.3-4-8.7-6.7-13.1-17.4-11.6-28.3l22.6-168c1.5-11-3.1-21.9-12-28.6L92.5 531.8c-8.5-6.3-13.1-16.5-12.2-27 0.9-10.5 7.1-19.8 16.5-24.6l803.6-414c10.4-5.3 22.8-4.3 32.2 2.7 9.3 6.9 13.9 18.6 11.8 30v0.1z" fill="#262626" p-id="4379"></path><path d="M741.6 337.1c12.7 11.1 14 30.3 3 43L497 665.1c-11.1 12.7-30.3 14.1-43.1 3-12.7-11.1-14.1-30.3-3-43.1l247.6-284.9c5.3-6.1 12.8-9.9 20.9-10.4 8.1-0.6 16.1 2.1 22.2 7.4z" fill="#ffb612" p-id="4380"></path></svg>